 <svg xmlns=" http://www.w3.org/2000/svg" width="226.145" height="34.229" viewBox="0 0 226.145 34.229">
    <g id="Line" transform="translate(0.494 0)">
      <g id="Line-2" data-name="Line" transform="matrix(-1, 0, 0, -1, 225.651, 34.229)">
        <path id="Path_15" data-name="Path 15"
          d="M.247,11.232C34.087,29.625,74.737,35.363,112.663,34.05a263.274,263.274,0,0,0,111.7-29.232c2.919-1.506.353-6.023-2.561-4.513A259.286,259.286,0,0,1,111.112,29.313C72.881,30.588,36.867,21.907.639,10.276a.525.525,0,0,0-.392.956Z"
          transform="translate(0 0)" fill="#fff" />
      </g>
      <path id="Color_Overlay" data-name="Color Overlay"
        d="M1.288,29.215A265.392,265.392,0,0,1,113.162.178c37.985-1.3,78.7,4.4,112.59,22.666a.522.522,0,0,1-.392.95C189.075,12.24,153.007,3.617,114.716,4.883A261.377,261.377,0,0,0,3.853,33.7a2.584,2.584,0,0,1-1.191.3C.323,34-1.226,30.5,1.288,29.215Z"
        transform="translate(-0.494 0.102)" fill="#f4732a" />
    </g>
    </svg>